<?xml version="1.0" encoding="iso-8859-1"?>
<!-- Generator: Adobe Illustrator 19.0.0, SVG Export Plug-In . SVG Version: 6.00 Build 0)  -->
<svg version="1.1" id="Layer_1" xmlns="http://www.w3.org/2000/svg" xmlns:xlink="http://www.w3.org/1999/xlink" x="0px" y="0px"
	 viewBox="0 0 512 512" style="enable-background:new 0 0 512 512;" xml:space="preserve">
<g>
	<g>
		<g>
			<path d="M365.688,186.479l-48.7-48.7c-0.802-0.794-1.886-1.246-3.021-1.246h-90.334c-1.135,0-2.219,0.452-3.021,1.246l-48.7,48.7
				c-0.794,0.802-1.246,1.886-1.246,3.021v90.334c0,1.135,0.452,2.219,1.246,3.021l48.7,48.7c0.802,0.794,1.886,1.246,3.021,1.246
				h90.334c1.135,0,2.219-0.452,3.021-1.254l48.7-48.7c0.794-0.794,1.246-1.877,1.246-3.012V189.5
				C366.933,188.365,366.481,187.281,365.688,186.479z"/>
			<path d="M215.1,119.467h28.1c2.355,0,4.267-1.911,4.267-4.267V4.267c0-2.355-1.911-4.267-4.267-4.267H21.333
				c-2.355,0-4.267,1.911-4.267,4.267v149.658c0,2.731,2.543,4.821,5.18,4.147c4.557-1.178,9.318-1.818,14.234-1.818
				c27.614,0,50.748,19.328,56.704,45.158c0.452,1.963,2.108,3.388,4.122,3.388h52.028c2.355,0,4.267-1.911,4.267-4.267v-19.567
				c0-1.135,0.452-2.219,1.246-3.021l57.233-57.233C212.881,119.919,213.965,119.467,215.1,119.467z"/>
		</g>
	</g>
</g>
<g>
	<g>
		<path d="M235.955,445.79l-59.733-51.2c-2.526-2.176-6.084-2.671-9.122-1.271c-3.021,1.391-4.966,4.412-4.966,7.748v25.6H76.8
			v-98.133c0-2.355-1.911-4.267-4.267-4.267H29.867c-2.355,0-4.267,1.911-4.267,4.267V473.6c0,2.355,1.911,4.267,4.267,4.267
			h132.267v25.6c0,3.337,1.946,6.357,4.966,7.748c1.143,0.529,2.355,0.785,3.567,0.785c1.997,0,3.977-0.7,5.555-2.057l59.733-51.2
			c1.894-1.621,2.978-3.985,2.978-6.477C238.933,449.775,237.85,447.411,235.955,445.79z"/>
	</g>
</g>
<g>
	<g>
		<circle cx="38.4" cy="217.6" r="38.4"/>
	</g>
</g>
<g>
	<g>
		<circle cx="413.867" cy="413.867" r="98.133"/>
	</g>
</g>
<g>
</g>
<g>
</g>
<g>
</g>
<g>
</g>
<g>
</g>
<g>
</g>
<g>
</g>
<g>
</g>
<g>
</g>
<g>
</g>
<g>
</g>
<g>
</g>
<g>
</g>
<g>
</g>
<g>
</g>
</svg>
